PathFileType	4	(X/Y/Z)	C:\Users\86182\Documents\cortex\Trimmed_M1_L7.trc
DataRate	CameraRate	NumFrames	NumMarkers	Units	OrigDataRate	OrigDataStartFrame	OrigNumFrames
100.00	100.00	       130	2	mm	100.00	1	       901
Frame#	Time	gripper			box			
		X1	Y1	Z1	X2	Y2	Z2	

1	0.000	199.68625	194.23491	192.94168	203.04843	193.49294	57.89046	
2	0.010	199.69110	194.23074	192.93808	203.03300	193.51666	57.93516	
3	0.020	199.68140	194.23906	192.94524	203.06052	193.49075	57.87139	
4	0.030	199.69600	194.22656	192.93451	203.04251	193.50293	57.90847	
5	0.040	199.67653	194.24324	192.94882	203.04884	193.48570	57.88282	
6	0.050	199.69356	194.22865	192.93629	203.04376	193.49344	57.89747	
7	0.060	199.66693	194.25145	192.95589	203.04477	193.50897	57.91117	
8	0.070	199.69568	194.23892	192.91756	203.04457	193.49127	57.89425	
9	0.080	199.69843	194.22446	192.93269	203.03340	193.49141	57.91006	
10	0.090	199.68140	194.23906	192.94524	203.03499	193.48711	57.90364	
11	0.100	199.68140	194.23906	192.94524	203.04921	193.49080	57.88727	
12	0.110	199.68140	194.23906	192.94524	203.02686	193.49110	57.91890	
13	0.120	199.69131	194.24451	192.93085	203.04410	193.49858	57.90200	
14	0.130	199.67146	194.27312	192.93961	203.03467	193.51221	57.92855	
15	0.140	199.69110	194.23074	192.93808	203.02092	193.48351	57.91987	
16	0.150	199.70090	194.22234	192.93088	203.03848	193.48366	57.89539	
17	0.160	199.67416	194.24527	192.95059	203.03644	193.49525	57.90952	
18	0.170	199.63777	194.25929	192.97438	203.01826	193.50256	57.94211	
19	0.180	199.67360	194.25743	192.94508	203.03119	193.48546	57.90737	
20	0.190	199.69600	194.22656	192.93451	203.03354	193.47905	57.89783	
21	0.200	199.67416	194.24527	192.95059	203.03226	193.48845	57.90874	
22	0.210	199.69798	194.25038	192.92007	203.01933	193.48782	57.92629	
23	0.220	199.66217	194.25555	192.95941	203.02606	193.49329	57.92214	
24	0.230	199.67514	194.25377	192.94511	203.04251	193.50293	57.90847	
25	0.240	199.68878	194.23972	192.93626	203.01634	193.48401	57.92677	
26	0.250	199.66457	194.25349	192.95766	203.04570	193.49428	57.89558	
27	0.260	199.68140	194.23906	192.94524	203.03610	193.49010	57.90499	
28	0.270	199.67758	194.25171	192.94336	203.02800	193.49411	57.92026	
29	0.280	199.66693	194.25145	192.95589	203.02098	193.50117	57.93698	
30	0.290	199.67172	194.24734	192.95235	203.03003	193.48248	57.90606	
31	0.300	199.66693	194.25145	192.95589	203.04312	193.48320	57.88846	
32	0.310	199.66948	194.25626	192.95047	203.03723	193.49309	57.90630	
33	0.320	199.67586	194.24847	192.94698	203.03181	193.49576	57.91653	
34	0.330	199.68625	194.23491	192.94168	203.02437	193.48001	57.91162	
35	0.340	199.68869	194.23282	192.93988	203.01366	193.48537	57.93184	
36	0.350	199.66933	194.24940	192.95412	203.02420	193.51028	57.94127	
37	0.360	199.69110	194.23074	192.93808	203.03499	193.48711	57.90364	
38	0.370	199.67653	194.24324	192.94882	203.02040	193.50864	57.94500	
39	0.380	199.68323	194.24916	192.93799	203.03181	193.49576	57.91653	
40	0.390	199.68828	194.25870	192.92722	203.01636	193.50174	57.94397	
41	0.400	199.67172	194.24734	192.95235	203.02557	193.50064	57.92998	
42	0.410	199.70090	194.22234	192.93088	203.04269	193.49043	57.89611	
43	0.420	199.67427	194.25214	192.94693	203.04251	193.50293	57.90847	
44	0.430	199.67906	194.24803	192.94341	203.01959	193.49298	57.93093	
45	0.440	199.67427	194.25214	192.94693	203.02068	193.49599	57.93232	
46	0.450	199.68245	194.25443	192.93620	203.02858	193.50449	57.92952	
47	0.460	199.68140	194.23906	192.94524	203.02525	193.49545	57.92536	
48	0.470	199.66914	194.25006	192.95219	203.02119	193.48863	57.92446	
49	0.480	199.68416	194.25763	192.93260	203.04535	193.48912	57.89105	
50	0.490	199.69843	194.22446	192.93269	203.04701	193.51505	57.91393	
51	0.500	199.70090	194.22234	192.93088	203.04428	193.48615	57.88973	
52	0.510	199.67416	194.24527	192.95059	203.04330	193.50076	57.90524	
53	0.520	199.67653	194.24324	192.94882	203.02150	193.49380	57.92907	
54	0.530	199.65739	194.25964	192.96292	203.04218	193.49774	57.90389	
55	0.540	199.70090	194.22234	192.93088	203.03101	193.49792	57.91975	
56	0.550	199.69356	194.22865	192.93629	203.02580	193.48811	57.91751	
57	0.560	199.68188	194.26651	192.93076	203.03371	193.49658	57.91465	
58	0.570	199.65645	194.24046	192.96013	203.02444	193.49763	57.92862	
59	0.580	199.67056	194.25014	192.95035	203.03595	193.50261	57.91736	
60	0.590	199.66457	194.25349	192.95766	203.02098	193.50117	57.93698	
61	0.600	199.67416	194.24527	192.95059	203.04076	193.48959	57.89799	
62	0.610	199.66667	194.24242	192.95261	203.03450	193.49442	57.91141	
63	0.620	199.68066	194.24434	192.94341	203.03723	193.49309	57.90630	
64	0.630	199.68625	194.23491	192.94168	203.03464	193.48199	57.89915	
65	0.640	199.69582	194.22722	192.93259	203.02637	193.49846	57.92673	
66	0.650	199.69600	194.22656	192.93451	203.04884	193.48570	57.88282	
67	0.660	199.67897	194.24113	192.94702	203.04118	193.48238	57.89034	
68	0.670	199.68379	194.23701	192.94347	203.04535	193.48912	57.89105	
69	0.680	199.67416	194.24527	192.95059	203.03018	193.50012	57.92300	
70	0.690	199.68379	194.23701	192.94347	203.02925	193.48463	57.90925	
71	0.700	199.68379	194.23701	192.94347	203.02444	193.49763	57.92862	
72	0.710	199.68481	194.24550	192.93800	203.03340	193.49141	57.91006	
73	0.720	199.69110	194.23074	192.93808	203.02357	193.48216	57.91481	
74	0.730	199.69600	194.22656	192.93451	203.03340	193.49141	57.91006	
75	0.740	199.67416	194.24527	192.95059	203.04251	193.50293	57.90847	
76	0.750	199.68379	194.23701	192.94347	203.03578	193.48495	57.90044	
77	0.760	199.68599	194.22130	192.93668	203.02469	193.48515	57.91618	
78	0.770	199.67416	194.24527	192.95059	203.01938	193.50558	57.94354	
79	0.780	199.67416	194.24527	192.95059	203.01907	193.50037	57.93884	
80	0.790	199.68379	194.23701	192.94347	203.02594	193.47575	57.90528	
81	0.800	199.68625	194.23491	192.94168	203.03435	193.50697	57.92388	
82	0.810	199.68379	194.23701	192.94347	203.04750	193.50763	57.90603	
83	0.820	199.69685	194.22815	192.93269	203.03307	193.48628	57.90552	
84	0.830	199.68869	194.23282	192.93988	203.03564	193.49742	57.91277	
85	0.840	199.68379	194.23701	192.94347	203.05466	193.48822	57.87713	
86	0.850	199.68140	194.23906	192.94524	203.03735	193.48070	57.89410	
87	0.860	199.67653	194.24324	192.94882	203.03181	193.49576	57.91653	
88	0.870	199.70175	194.22394	192.92906	203.03757	193.49825	57.91088	
89	0.880	199.68239	194.24756	192.93979	203.04504	193.48404	57.88657	
90	0.890	199.68869	194.23282	192.93988	203.03241	193.50615	57.92576	
91	0.900	199.66643	194.26358	192.95038	203.03917	193.49391	57.90442	
92	0.910	199.69110	194.23074	192.93808	203.01205	193.48972	57.93830	
93	0.920	199.70090	194.22234	192.93088	203.05611	193.50882	57.89515	
94	0.930	199.67441	194.25900	192.94328	203.03735	193.48070	57.89410	
95	0.940	199.68140	194.23906	192.94524	203.05466	193.48822	57.87713	
96	0.950	199.69110	194.23074	192.93808	203.02939	193.50229	57.92625	
97	0.960	199.64822	194.25601	192.96764	203.01286	193.48755	57.93508	
98	0.970	199.65025	194.26575	192.96815	203.02060	193.47838	57.91531	
99	0.980	199.60118	194.25598	192.97563	203.01685	193.47675	57.91900	
100	0.990	199.50502	194.26218	193.03491	203.01840	193.47249	57.91265	
101	1.000	199.49658	194.26100	193.03969	203.01840	193.47249	57.91265	
102	1.010	199.48901	194.25365	193.04007	203.00926	193.47224	57.91746	
103	1.020	199.46146	194.22687	193.04149	203.01840	193.47249	57.91265	
104	1.030	199.50203	194.25507	193.04559	202.97287	193.47133	57.93657	
105	1.040	199.50916	194.24724	193.05342	202.97194	193.47014	57.92782	
106	1.050	199.49153	194.23012	193.05432	202.91527	193.45659	57.87703	
107	1.060	199.50240	194.19600	193.10782	202.89490	193.35355	57.81085	
108	1.070	199.43607	194.07857	193.20641	200.31081	190.21010	58.47433	
109	1.080	199.37892	194.07222	193.31566	202.67043	193.11404	57.84262	
110	1.090	199.49380	194.10956	193.56996	202.59126	193.05937	57.84661	
111	1.100	199.45793	194.05865	193.83517	202.53662	193.06779	57.84925	
112	1.110	199.42955	194.15091	194.01265	202.45329	193.00252	57.81736	
113	1.120	199.41396	194.17500	194.11736	202.42815	193.08971	57.88656	
114	1.130	199.35388	194.10699	194.43610	202.44783	193.20924	57.95314	
115	1.140	199.42924	194.13742	194.72125	202.54588	193.23517	58.20662	
116	1.150	199.68604	194.14345	195.11836	202.27335	193.17923	58.46357	
117	1.160	199.49757	194.16290	195.51155	202.50438	193.14612	58.78119	
118	1.170	199.40785	194.17032	195.83641	201.71173	194.12115	59.85544	
119	1.180	199.43385	194.19913	196.16965	202.32285	193.28462	59.75624	
120	1.190	199.49734	194.16631	196.53642	202.45374	193.38258	60.11446	
121	1.200	199.44843	194.24002	197.05971	202.52092	193.38795	60.55257	
122	1.210	199.46243	194.28555	197.42676	202.51985	193.39008	60.71946	
123	1.220	199.42102	194.28922	197.87152	202.59453	193.26718	60.94380	
124	1.230	199.38757	194.31049	198.35765	201.26756	194.36409	62.68734	
125	1.240	199.49101	194.21979	198.68716	202.28773	193.52458	62.18359	
126	1.250	199.29094	194.29111	199.23286	202.18607	193.55801	62.63302	
127	1.260	199.18999	194.38533	199.59975	202.42570	193.46558	62.96160	
128	1.270	199.38846	194.27051	200.20827	202.55605	193.47023	63.30016	
129	1.280	199.34245	194.27818	200.53052	202.15321	193.38034	63.94950	
130	1.290	199.48547	194.29120	200.79778	202.19675	193.53378	64.47831	
